<?xml version="1.0" encoding="UTF-8" standalone="no"?>
<!DOCTYPE svg PUBLIC "-//W3C//DTD SVG 1.1//EN" "http://www.w3.org/Graphics/SVG/1.1/DTD/svg11.dtd">
<svg xmlns="http://www.w3.org/2000/svg" version="1.1" viewBox="0.00 0.00 512.00 512.00">
  <path fill="#fff" d="
  M 512.00 254.08
  L 512.00 256.35
  Q 511.49 269.77 503.17 279.43
  Q 491.56 292.89 472.50 292.89
  Q 293.18 292.88 114.30 292.88
  Q 112.81 292.88 114.20 293.42
  Q 123.55 297.01 132.26 302.82
  C 136.81 305.85 141.27 310.03 145.14 313.90
  Q 193.93 362.83 243.37 412.48
  C 254.26 423.42 257.95 438.04 253.07 452.59
  Q 250.08 461.54 242.87 467.22
  C 230.76 476.74 215.53 478.02 201.91 470.81
  Q 197.68 468.57 187.22 458.13
  Q 98.67 369.62 10.17 281.07
  Q 1.02 271.92 0.00 257.13
  L 0.00 254.42
  Q 1.02 239.60 10.17 230.45
  Q 101.24 139.35 192.55 48.05
  C 205.88 34.73 225.90 32.51 241.24 43.90
  Q 249.41 49.96 252.83 59.40
  C 258.15 74.09 254.31 89.21 243.30 100.24
  Q 195.99 147.63 142.74 200.77
  Q 130.75 212.73 115.69 218.58
  Q 113.11 219.58 115.88 219.58
  Q 294.15 219.51 473.75 219.57
  C 480.49 219.58 487.22 220.96 493.17 224.37
  Q 509.70 233.85 512.00 254.08
  Z" />
</svg>
