<?xml version="1.0" encoding="UTF-8" standalone="no"?>
<!DOCTYPE svg PUBLIC "-//W3C//DTD SVG 1.1//EN" "http://www.w3.org/Graphics/SVG/1.1/DTD/svg11.dtd">
<svg xmlns="http://www.w3.org/2000/svg" version="1.1" viewBox="0.00 0.00 512.00 512.00">
  <path fill="#fff" d="
  M 315.90 250.34
  C 362.62 266.13 397.24 301.60 410.08 349.18
  Q 412.37 357.64 415.82 376.45
  Q 417.66 386.47 414.99 394.90
  C 409.92 410.87 395.70 421.30 379.03 421.30
  Q 256.36 421.31 133.99 421.31
  Q 115.07 421.31 103.84 407.66
  Q 93.10 394.59 96.09 376.86
  Q 96.88 372.16 99.47 359.67
  Q 101.51 349.87 103.76 342.81
  Q 117.74 299.05 155.22 271.22
  C 167.42 262.16 181.97 255.19 196.45 250.26
  A 0.27 0.27 0.0 0 0 196.54 249.80
  C 160.72 217.88 154.74 165.06 183.71 126.68
  C 208.94 93.24 254.16 81.40 292.47 98.34
  C 331.38 115.54 353.99 157.98 344.57 200.63
  Q 338.21 229.39 315.74 249.56
  Q 315.15 250.09 315.90 250.34
  Z
  M 314.63 181.33
  A 58.63 58.63 0.0 0 0 256.00 122.70
  A 58.63 58.63 0.0 0 0 197.37 181.33
  A 58.63 58.63 0.0 0 0 256.00 239.96
  A 58.63 58.63 0.0 0 0 314.63 181.33
  Z
  M 187.86 288.65
  Q 148.18 309.54 134.00 353.28
  C 131.14 362.11 129.65 372.29 127.65 381.80
  C 127.14 384.25 127.34 386.76 129.59 388.32
  Q 131.03 389.31 134.59 389.31
  Q 256.54 389.31 378.50 389.32
  C 383.22 389.32 385.25 386.22 384.39 382.04
  Q 382.57 373.22 380.90 364.73
  C 373.53 327.22 348.12 297.36 312.73 283.29
  Q 283.82 271.80 254.51 272.29
  Q 217.77 272.90 187.86 288.65
  Z" />
</svg>
